ISO-10303-21;
HEADER;
FILE_DESCRIPTION (( 'STEP AP214' ),
    '1' );
FILE_NAME ('trimmming_mohammmmmaad.STEP',
    '2024-05-30T13:45:43',
    ( '' ),
    ( '' ),
    'SwSTEP 2.0',
    'SolidWorks 2023',
    '' );
FILE_SCHEMA (( 'AUTOMOTIVE_DESIGN' ));
ENDSEC;

DATA;
#1 = FACE_OUTER_BOUND ( 'NONE', #63, .T. ) ;
#2 = FACE_BOUND ( 'NONE', #191, .T. ) ;
#3 = VERTEX_POINT ( 'NONE', #193 ) ;
#4 = VECTOR ( 'NONE', #7, 1000.000000000000000 ) ;
#5 = CYLINDRICAL_SURFACE ( 'NONE', #14, 116.4999999999999858 ) ;
#6 = AXIS2_PLACEMENT_3D ( 'NONE', #78, #80, #140 ) ;
#7 = DIRECTION ( 'NONE',  ( -0.000000000000000000, -1.000000000000000000, -0.000000000000000000 ) ) ;
#8 = DIRECTION ( 'NONE',  ( 0.000000000000000000, 1.000000000000000000, 0.000000000000000000 ) ) ;
#9 = FILL_AREA_STYLE ('',( #143 ) ) ;
#10 = AXIS2_PLACEMENT_3D ( 'NONE', #120, #148, #181 ) ;
#11 = ORIENTED_EDGE ( 'NONE', *, *, #12, .F. ) ;
#12 = EDGE_CURVE ( 'NONE', #36, #77, #127, .T. ) ;
#13 = DIRECTION ( 'NONE',  ( 0.000000000000000000, 1.000000000000000000, 0.000000000000000000 ) ) ;
#14 = AXIS2_PLACEMENT_3D ( 'NONE', #190, #81, #96 ) ;
#15 = CARTESIAN_POINT ( 'NONE',  ( 0.000000000000000000, 0.000000000000000000, 0.000000000000000000 ) ) ;
#16 = CARTESIAN_POINT ( 'NONE',  ( 1.426713521006666369E-14, 300.0000000000000000, 116.4999999999999858 ) ) ;
#17 = PRODUCT_RELATED_PRODUCT_CATEGORY ( 'part', '', ( #112 ) ) ;
#18 = ADVANCED_FACE ( 'NONE', ( #174 ), #176, .F. ) ;
#19 = ADVANCED_FACE ( 'NONE', ( #66 ), #5, .T. ) ;
#20 = AXIS2_PLACEMENT_3D ( 'NONE', #101, #195, #167 ) ;
#21 = ORIENTED_EDGE ( 'NONE', *, *, #170, .F. ) ;
#22 = LINE ( 'NONE', #131, #4 ) ;
#23 = SURFACE_STYLE_FILL_AREA ( #9 ) ;
#24 = DIRECTION ( 'NONE',  ( 0.000000000000000000, 0.000000000000000000, 1.000000000000000000 ) ) ;
#25 = DIRECTION ( 'NONE',  ( 0.000000000000000000, 0.000000000000000000, 1.000000000000000000 ) ) ;
#26 = EDGE_CURVE ( 'NONE', #77, #34, #22, .T. ) ;
#27 = FACE_OUTER_BOUND ( 'NONE', #94, .T. ) ;
#28 = CIRCLE ( 'NONE', #178, 116.4999999999999858 ) ;
#29 = DIRECTION ( 'NONE',  ( -0.000000000000000000, -1.000000000000000000, -0.000000000000000000 ) ) ;
#30 = EDGE_CURVE ( 'NONE', #189, #34, #128, .T. ) ;
#31 = ORIENTED_EDGE ( 'NONE', *, *, #26, .T. ) ;
#32 = ORIENTED_EDGE ( 'NONE', *, *, #185, .F. ) ;
#33 = EDGE_LOOP ( 'NONE', ( #75, #186, #46, #188 ) ) ;
#34 = VERTEX_POINT ( 'NONE', #144 ) ;
#35 =( NAMED_UNIT ( * ) PLANE_ANGLE_UNIT ( ) SI_UNIT ( $, .RADIAN. ) );
#36 = VERTEX_POINT ( 'NONE', #145 ) ;
#37 = DIRECTION ( 'NONE',  ( 0.000000000000000000, 1.000000000000000000, 0.000000000000000000 ) ) ;
#38 = LINE ( 'NONE', #65, #115 ) ;
#39 = CARTESIAN_POINT ( 'NONE',  ( 0.000000000000000000, 300.0000000000000000, 0.000000000000000000 ) ) ;
#40 = CARTESIAN_POINT ( 'NONE',  ( 0.000000000000000000, 0.000000000000000000, 0.000000000000000000 ) ) ;
#41 = ADVANCED_FACE ( 'NONE', ( #67 ), #163, .F. ) ;
#42 =( NAMED_UNIT ( * ) SI_UNIT ( $, .STERADIAN. ) SOLID_ANGLE_UNIT ( ) );
#43 = CIRCLE ( 'NONE', #152, 116.4999999999999858 ) ;
#44 = CARTESIAN_POINT ( 'NONE',  ( 0.000000000000000000, 300.0000000000000000, 0.000000000000000000 ) ) ;
#45 = DIRECTION ( 'NONE',  ( 0.000000000000000000, 0.000000000000000000, 1.000000000000000000 ) ) ;
#46 = ORIENTED_EDGE ( 'NONE', *, *, #170, .T. ) ;
#47 = AXIS2_PLACEMENT_3D ( 'NONE', #61, #123, #119 ) ;
#48 = ORIENTED_EDGE ( 'NONE', *, *, #60, .F. ) ;
#49 = VERTEX_POINT ( 'NONE', #53 ) ;
#50 = CARTESIAN_POINT ( 'NONE',  ( 0.000000000000000000, 300.0000000000000000, 0.000000000000000000 ) ) ;
#51 = ORIENTED_EDGE ( 'NONE', *, *, #108, .F. ) ;
#52 = ORIENTED_EDGE ( 'NONE', *, *, #93, .F. ) ;
#53 = CARTESIAN_POINT ( 'NONE',  ( 0.000000000000000000, 0.000000000000000000, -116.4999999999999858 ) ) ;
#54 = DIRECTION ( 'NONE',  ( 0.000000000000000000, 0.000000000000000000, 1.000000000000000000 ) ) ;
#55 = EDGE_CURVE ( 'NONE', #36, #189, #38, .T. ) ;
#56 = CARTESIAN_POINT ( 'NONE',  ( 0.000000000000000000, 300.0000000000000000, -116.4999999999999858 ) ) ;
#57 = PRODUCT_CONTEXT ( 'NONE', #139, 'mechanical' ) ;
#58 = CYLINDRICAL_SURFACE ( 'NONE', #196, 116.4999999999999858 ) ;
#59 = MANIFOLD_SOLID_BREP ( 'Boss-Extrude1', #169 ) ;
#60 = EDGE_CURVE ( 'NONE', #77, #36, #141, .T. ) ;
#61 = CARTESIAN_POINT ( 'NONE',  ( 0.000000000000000000, 300.0000000000000000, 0.000000000000000000 ) ) ;
#62 = ORIENTED_EDGE ( 'NONE', *, *, #157, .T. ) ;
#63 = EDGE_LOOP ( 'NONE', ( #154, #51, #62, #109 ) ) ;
#64 = CIRCLE ( 'NONE', #133, 19.25000000000000000 ) ;
#65 = CARTESIAN_POINT ( 'NONE',  ( 2.357445088358654757E-15, 300.0000000000000000, 19.25000000000000000 ) ) ;
#66 = FACE_OUTER_BOUND ( 'NONE', #33, .T. ) ;
#67 = FACE_OUTER_BOUND ( 'NONE', #137, .T. ) ;
#68 = AXIS2_PLACEMENT_3D ( 'NONE', #158, #114, #54 ) ;
#69 = SURFACE_SIDE_STYLE ('',( #23 ) ) ;
#70 = CIRCLE ( 'NONE', #20, 116.4999999999999858 ) ;
#71 = DIRECTION ( 'NONE',  ( 0.000000000000000000, 0.000000000000000000, -1.000000000000000000 ) ) ;
#72 = APPLICATION_PROTOCOL_DEFINITION ( 'draft international standard', 'automotive_design', 1998, #139 ) ;
#73 = DIRECTION ( 'NONE',  ( 0.000000000000000000, 1.000000000000000000, 0.000000000000000000 ) ) ;
#74 = LINE ( 'NONE', #180, #87 ) ;
#75 = ORIENTED_EDGE ( 'NONE', *, *, #106, .F. ) ;
#76 = ORIENTED_EDGE ( 'NONE', *, *, #108, .T. ) ;
#77 = VERTEX_POINT ( 'NONE', #198 ) ;
#78 = CARTESIAN_POINT ( 'NONE',  ( 0.000000000000000000, 300.0000000000000000, 0.000000000000000000 ) ) ;
#79 = AXIS2_PLACEMENT_3D ( 'NONE', #150, #104, #99 ) ;
#80 = DIRECTION ( 'NONE',  ( -0.000000000000000000, -1.000000000000000000, -0.000000000000000000 ) ) ;
#81 = DIRECTION ( 'NONE',  ( -0.000000000000000000, -1.000000000000000000, -0.000000000000000000 ) ) ;
#82 = VERTEX_POINT ( 'NONE', #179 ) ;
#83 = AXIS2_PLACEMENT_3D ( 'NONE', #160, #8, #156 ) ;
#84 = ORIENTED_EDGE ( 'NONE', *, *, #12, .T. ) ;
#85 =( LENGTH_UNIT ( ) NAMED_UNIT ( * ) SI_UNIT ( .MILLI., .METRE. ) );
#86 = CARTESIAN_POINT ( 'NONE',  ( 2.357445088358654757E-15, 0.000000000000000000, 19.25000000000000000 ) ) ;
#87 = VECTOR ( 'NONE', #132, 1000.000000000000000 ) ;
#88 = UNCERTAINTY_MEASURE_WITH_UNIT (LENGTH_MEASURE( 1.000000000000000082E-05 ), #85, 'distance_accuracy_value', 'NONE');
#89 = PRODUCT_DEFINITION ( 'UNKNOWN', '', #187, #103 ) ;
#90 = DIRECTION ( 'NONE',  ( 0.000000000000000000, 1.000000000000000000, 0.000000000000000000 ) ) ;
#91 = DIRECTION ( 'NONE',  ( 0.000000000000000000, 0.000000000000000000, -1.000000000000000000 ) ) ;
#92 = ORIENTED_EDGE ( 'NONE', *, *, #26, .F. ) ;
#93 = EDGE_CURVE ( 'NONE', #49, #3, #28, .T. ) ;
#94 = EDGE_LOOP ( 'NONE', ( #52, #21 ) ) ;
#95 =( NAMED_UNIT ( * ) SI_UNIT ( $, .STERADIAN. ) SOLID_ANGLE_UNIT ( ) );
#96 = DIRECTION ( 'NONE',  ( 0.000000000000000000, 0.000000000000000000, -1.000000000000000000 ) ) ;
#97 = ORIENTED_EDGE ( 'NONE', *, *, #30, .T. ) ;
#98 = EDGE_LOOP ( 'NONE', ( #138, #142, #32, #92 ) ) ;
#99 = DIRECTION ( 'NONE',  ( 0.000000000000000000, 0.000000000000000000, 1.000000000000000000 ) ) ;
#100 = PLANE ( 'NONE',  #147 ) ;
#101 = CARTESIAN_POINT ( 'NONE',  ( 0.000000000000000000, 0.000000000000000000, 0.000000000000000000 ) ) ;
#102 = AXIS2_PLACEMENT_3D ( 'NONE', #50, #37, #25 ) ;
#103 = PRODUCT_DEFINITION_CONTEXT ( 'detailed design', #159, 'design' ) ;
#104 = DIRECTION ( 'NONE',  ( 0.000000000000000000, 1.000000000000000000, 0.000000000000000000 ) ) ;
#105 = DIRECTION ( 'NONE',  ( 0.000000000000000000, 1.000000000000000000, 0.000000000000000000 ) ) ;
#106 = EDGE_CURVE ( 'NONE', #82, #171, #125, .T. ) ;
#107 = VECTOR ( 'NONE', #29, 1000.000000000000000 ) ;
#108 = EDGE_CURVE ( 'NONE', #171, #82, #43, .T. ) ;
#109 = ORIENTED_EDGE ( 'NONE', *, *, #93, .T. ) ;
#110 =( GEOMETRIC_REPRESENTATION_CONTEXT ( 3 ) GLOBAL_UNCERTAINTY_ASSIGNED_CONTEXT ( ( #88 ) ) GLOBAL_UNIT_ASSIGNED_CONTEXT ( ( #85, #146, #42 ) ) REPRESENTATION_CONTEXT ( 'NONE', 'WORKASPACE' ) );
#111 = ORIENTED_EDGE ( 'NONE', *, *, #185, .T. ) ;
#112 = PRODUCT ( 'trimmming_mohammmmmaad', 'trimmming_mohammmmmaad', '', ( #57 ) ) ;
#113 = ADVANCED_FACE ( 'NONE', ( #1 ), #58, .T. ) ;
#114 = DIRECTION ( 'NONE',  ( 0.000000000000000000, 1.000000000000000000, 0.000000000000000000 ) ) ;
#115 = VECTOR ( 'NONE', #126, 1000.000000000000000 ) ;
#116 = SURFACE_STYLE_USAGE ( .BOTH. , #69 ) ;
#117 = EDGE_LOOP ( 'NONE', ( #76, #172 ) ) ;
#118 = PRESENTATION_LAYER_ASSIGNMENT (  '', '', ( #162 ) ) ;
#119 = DIRECTION ( 'NONE',  ( 0.000000000000000000, -0.000000000000000000, 1.000000000000000000 ) ) ;
#120 = CARTESIAN_POINT ( 'NONE',  ( 0.000000000000000000, 0.000000000000000000, 0.000000000000000000 ) ) ;
#121 = FACE_BOUND ( 'NONE', #124, .T. ) ;
#122 = COLOUR_RGB ( '',0.7921568627450980005, 0.8196078431372548767, 0.9333333333333333481 ) ;
#123 = DIRECTION ( 'NONE',  ( 0.000000000000000000, 1.000000000000000000, 0.000000000000000000 ) ) ;
#124 = EDGE_LOOP ( 'NONE', ( #111, #97 ) ) ;
#125 = CIRCLE ( 'NONE', #79, 116.4999999999999858 ) ;
#126 = DIRECTION ( 'NONE',  ( -0.000000000000000000, -1.000000000000000000, -0.000000000000000000 ) ) ;
#127 = CIRCLE ( 'NONE', #68, 19.25000000000000000 ) ;
#128 = CIRCLE ( 'NONE', #83, 19.25000000000000000 ) ;
#129 = PRESENTATION_STYLE_ASSIGNMENT (( #116 ) ) ;
#130 = ADVANCED_FACE ( 'NONE', ( #27, #121 ), #100, .F. ) ;
#131 = CARTESIAN_POINT ( 'NONE',  ( 0.000000000000000000, 300.0000000000000000, -19.25000000000000000 ) ) ;
#132 = DIRECTION ( 'NONE',  ( -0.000000000000000000, -1.000000000000000000, -0.000000000000000000 ) ) ;
#133 = AXIS2_PLACEMENT_3D ( 'NONE', #134, #90, #24 ) ;
#134 = CARTESIAN_POINT ( 'NONE',  ( 0.000000000000000000, 0.000000000000000000, 0.000000000000000000 ) ) ;
#135 = FACE_OUTER_BOUND ( 'NONE', #117, .T. ) ;
#136 = SHAPE_DEFINITION_REPRESENTATION ( #161, #149 ) ;
#137 = EDGE_LOOP ( 'NONE', ( #194, #84, #31, #153 ) ) ;
#138 = ORIENTED_EDGE ( 'NONE', *, *, #60, .T. ) ;
#139 = APPLICATION_CONTEXT ( 'automotive_design' ) ;
#140 = DIRECTION ( 'NONE',  ( 0.000000000000000000, 0.000000000000000000, -1.000000000000000000 ) ) ;
#141 = CIRCLE ( 'NONE', #102, 19.25000000000000000 ) ;
#142 = ORIENTED_EDGE ( 'NONE', *, *, #55, .T. ) ;
#143 = FILL_AREA_STYLE_COLOUR ( '', #122 ) ;
#144 = CARTESIAN_POINT ( 'NONE',  ( 0.000000000000000000, 0.000000000000000000, -19.25000000000000000 ) ) ;
#145 = CARTESIAN_POINT ( 'NONE',  ( 2.357445088358654757E-15, 300.0000000000000000, 19.25000000000000000 ) ) ;
#146 =( NAMED_UNIT ( * ) PLANE_ANGLE_UNIT ( ) SI_UNIT ( $, .RADIAN. ) );
#147 = AXIS2_PLACEMENT_3D ( 'NONE', #15, #13, #165 ) ;
#148 = DIRECTION ( 'NONE',  ( 0.000000000000000000, 0.000000000000000000, 1.000000000000000000 ) ) ;
#149 = ADVANCED_BREP_SHAPE_REPRESENTATION ( 'trimmming_mohammmmmaad', ( #59, #10 ), #110 ) ;
#150 = CARTESIAN_POINT ( 'NONE',  ( 0.000000000000000000, 300.0000000000000000, 0.000000000000000000 ) ) ;
#151 = EDGE_CURVE ( 'NONE', #82, #3, #168, .T. ) ;
#152 = AXIS2_PLACEMENT_3D ( 'NONE', #44, #73, #45 ) ;
#153 = ORIENTED_EDGE ( 'NONE', *, *, #30, .F. ) ;
#154 = ORIENTED_EDGE ( 'NONE', *, *, #151, .F. ) ;
#155 = DIRECTION ( 'NONE',  ( -0.000000000000000000, -1.000000000000000000, -0.000000000000000000 ) ) ;
#156 = DIRECTION ( 'NONE',  ( 0.000000000000000000, 0.000000000000000000, 1.000000000000000000 ) ) ;
#157 = EDGE_CURVE ( 'NONE', #171, #49, #74, .T. ) ;
#158 = CARTESIAN_POINT ( 'NONE',  ( 0.000000000000000000, 300.0000000000000000, 0.000000000000000000 ) ) ;
#159 = APPLICATION_CONTEXT ( 'automotive_design' ) ;
#160 = CARTESIAN_POINT ( 'NONE',  ( 0.000000000000000000, 0.000000000000000000, 0.000000000000000000 ) ) ;
#161 = PRODUCT_DEFINITION_SHAPE ( 'NONE', 'NONE',  #89 ) ;
#162 = STYLED_ITEM ( 'NONE', ( #129 ), #59 ) ;
#163 = CYLINDRICAL_SURFACE ( 'NONE', #6, 19.25000000000000000 ) ;
#164 = PLANE ( 'NONE',  #47 ) ;
#165 = DIRECTION ( 'NONE',  ( 0.000000000000000000, -0.000000000000000000, 1.000000000000000000 ) ) ;
#166 = UNCERTAINTY_MEASURE_WITH_UNIT (LENGTH_MEASURE( 1.000000000000000082E-05 ), #173, 'distance_accuracy_value', 'NONE');
#167 = DIRECTION ( 'NONE',  ( 0.000000000000000000, 0.000000000000000000, 1.000000000000000000 ) ) ;
#168 = LINE ( 'NONE', #16, #107 ) ;
#169 = CLOSED_SHELL ( 'NONE', ( #18, #19, #199, #130, #113, #41 ) ) ;
#170 = EDGE_CURVE ( 'NONE', #3, #49, #70, .T. ) ;
#171 = VERTEX_POINT ( 'NONE', #56 ) ;
#172 = ORIENTED_EDGE ( 'NONE', *, *, #106, .T. ) ;
#173 =( LENGTH_UNIT ( ) NAMED_UNIT ( * ) SI_UNIT ( .MILLI., .METRE. ) );
#174 = FACE_OUTER_BOUND ( 'NONE', #98, .T. ) ;
#175 =( GEOMETRIC_REPRESENTATION_CONTEXT ( 3 ) GLOBAL_UNCERTAINTY_ASSIGNED_CONTEXT ( ( #166 ) ) GLOBAL_UNIT_ASSIGNED_CONTEXT ( ( #173, #35, #95 ) ) REPRESENTATION_CONTEXT ( 'NONE', 'WORKASPACE' ) );
#176 = CYLINDRICAL_SURFACE ( 'NONE', #177, 19.25000000000000000 ) ;
#177 = AXIS2_PLACEMENT_3D ( 'NONE', #39, #155, #71 ) ;
#178 = AXIS2_PLACEMENT_3D ( 'NONE', #40, #105, #182 ) ;
#179 = CARTESIAN_POINT ( 'NONE',  ( 1.426713521006666369E-14, 300.0000000000000000, 116.4999999999999858 ) ) ;
#180 = CARTESIAN_POINT ( 'NONE',  ( 0.000000000000000000, 300.0000000000000000, -116.4999999999999858 ) ) ;
#181 = DIRECTION ( 'NONE',  ( 1.000000000000000000, 0.000000000000000000, 0.000000000000000000 ) ) ;
#182 = DIRECTION ( 'NONE',  ( 0.000000000000000000, 0.000000000000000000, 1.000000000000000000 ) ) ;
#183 = DIRECTION ( 'NONE',  ( -0.000000000000000000, -1.000000000000000000, -0.000000000000000000 ) ) ;
#184 = APPLICATION_PROTOCOL_DEFINITION ( 'draft international standard', 'automotive_design', 1998, #159 ) ;
#185 = EDGE_CURVE ( 'NONE', #34, #189, #64, .T. ) ;
#186 = ORIENTED_EDGE ( 'NONE', *, *, #151, .T. ) ;
#187 = PRODUCT_DEFINITION_FORMATION_WITH_SPECIFIED_SOURCE ( 'ANY', '', #112, .NOT_KNOWN. ) ;
#188 = ORIENTED_EDGE ( 'NONE', *, *, #157, .F. ) ;
#189 = VERTEX_POINT ( 'NONE', #86 ) ;
#190 = CARTESIAN_POINT ( 'NONE',  ( 0.000000000000000000, 300.0000000000000000, 0.000000000000000000 ) ) ;
#191 = EDGE_LOOP ( 'NONE', ( #48, #11 ) ) ;
#192 = MECHANICAL_DESIGN_GEOMETRIC_PRESENTATION_REPRESENTATION (  '', ( #162 ), #175 ) ;
#193 = CARTESIAN_POINT ( 'NONE',  ( 1.426713521006666369E-14, 0.000000000000000000, 116.4999999999999858 ) ) ;
#194 = ORIENTED_EDGE ( 'NONE', *, *, #55, .F. ) ;
#195 = DIRECTION ( 'NONE',  ( 0.000000000000000000, 1.000000000000000000, 0.000000000000000000 ) ) ;
#196 = AXIS2_PLACEMENT_3D ( 'NONE', #197, #183, #91 ) ;
#197 = CARTESIAN_POINT ( 'NONE',  ( 0.000000000000000000, 300.0000000000000000, 0.000000000000000000 ) ) ;
#198 = CARTESIAN_POINT ( 'NONE',  ( 0.000000000000000000, 300.0000000000000000, -19.25000000000000000 ) ) ;
#199 = ADVANCED_FACE ( 'NONE', ( #135, #2 ), #164, .T. ) ;
ENDSEC;
END-ISO-10303-21;
