ISO-10303-21;
HEADER;
FILE_DESCRIPTION (( 'STEP AP214' ),
    '1' );
FILE_NAME ('upsetting_quarter assembly.STEP',
    '2024-05-30T13:03:21',
    ( '' ),
    ( '' ),
    'SwSTEP 2.0',
    'SolidWorks 2023',
    '' );
FILE_SCHEMA (( 'AUTOMOTIVE_DESIGN' ));
ENDSEC;

DATA;
#1 = CARTESIAN_POINT ( 'NONE',  ( 0.000000000000000000, 0.000000000000000000, 0.000000000000000000 ) ) ;
#2 =( NAMED_UNIT ( * ) SI_UNIT ( $, .STERADIAN. ) SOLID_ANGLE_UNIT ( ) );
#3 = MECHANICAL_DESIGN_GEOMETRIC_PRESENTATION_REPRESENTATION (  '', ( #318 ), #342 ) ;
#4 = AXIS2_PLACEMENT_3D ( 'NONE', #113, #200, #337 ) ;
#5 = CARTESIAN_POINT ( 'NONE',  ( 0.000000000000000000, 0.000000000000000000, -70.00000000000001421 ) ) ;
#6 = DIRECTION ( 'NONE',  ( 1.000000000000000000, 0.000000000000000000, 0.000000000000000000 ) ) ;
#7 = CARTESIAN_POINT ( 'NONE',  ( 0.000000000000000000, 180.0000000000000000, 0.000000000000000000 ) ) ;
#8 = APPLICATION_PROTOCOL_DEFINITION ( 'draft international standard', 'automotive_design', 1998, #148 ) ;
#9 = DIRECTION ( 'NONE',  ( 0.000000000000000000, -0.000000000000000000, 1.000000000000000000 ) ) ;
#10 = APPLICATION_CONTEXT ( 'automotive_design' ) ;
#11 = ADVANCED_FACE ( 'NONE', ( #141 ), #302, .T. ) ;
#12 = FACE_OUTER_BOUND ( 'NONE', #71, .T. ) ;
#13 = MECHANICAL_DESIGN_GEOMETRIC_PRESENTATION_REPRESENTATION (  '', ( #146 ), #349 ) ;
#14 = FACE_OUTER_BOUND ( 'NONE', #357, .T. ) ;
#15 = EDGE_CURVE ( 'NONE', #149, #31, #19, .T. ) ;
#16 = CARTESIAN_POINT ( 'NONE',  ( 0.000000000000000000, 0.000000000000000000, 0.000000000000000000 ) ) ;
#17 = APPLICATION_CONTEXT ( 'automotive_design' ) ;
#18 = DIRECTION ( 'NONE',  ( 0.000000000000000000, 0.000000000000000000, 1.000000000000000000 ) ) ;
#19 = LINE ( 'NONE', #44, #26 ) ;
#20 = SURFACE_STYLE_FILL_AREA ( #211 ) ;
#21 = ORIENTED_EDGE ( 'NONE', *, *, #352, .F. ) ;
#22 = PRODUCT_RELATED_PRODUCT_CATEGORY ( 'part', '', ( #97 ) ) ;
#23 = CARTESIAN_POINT ( 'NONE',  ( 0.000000000000000000, 0.000000000000000000, 0.000000000000000000 ) ) ;
#24 = PRODUCT_DEFINITION_CONTEXT ( 'detailed design', #17, 'design' ) ;
#25 =( NAMED_UNIT ( * ) PLANE_ANGLE_UNIT ( ) SI_UNIT ( $, .RADIAN. ) );
#26 = VECTOR ( 'NONE', #78, 1000.000000000000000 ) ;
#27 = AXIS2_PLACEMENT_3D ( 'NONE', #334, #49, #86 ) ;
#28 =( NAMED_UNIT ( * ) PLANE_ANGLE_UNIT ( ) SI_UNIT ( $, .RADIAN. ) );
#29 = VERTEX_POINT ( 'NONE', #162 ) ;
#30 = VECTOR ( 'NONE', #93, 1000.000000000000000 ) ;
#31 = VERTEX_POINT ( 'NONE', #50 ) ;
#32 = DIRECTION ( 'NONE',  ( 0.000000000000000000, 0.000000000000000000, 1.000000000000000000 ) ) ;
#33 = DIRECTION ( 'NONE',  ( 1.000000000000000000, 0.000000000000000000, 0.000000000000000000 ) ) ;
#34 = EDGE_CURVE ( 'NONE', #31, #264, #173, .T. ) ;
#35 = CARTESIAN_POINT ( 'NONE',  ( 0.000000000000000000, 180.0000000000000000, -70.00000000000000000 ) ) ;
#36 = CIRCLE ( 'NONE', #353, 70.00000000000001421 ) ;
#37 = PRODUCT_DEFINITION_FORMATION_WITH_SPECIFIED_SOURCE ( 'ANY', '', #56, .NOT_KNOWN. ) ;
#38 = CARTESIAN_POINT ( 'NONE',  ( 0.000000000000000000, 0.000000000000000000, 0.000000000000000000 ) ) ;
#39 = EDGE_CURVE ( 'NONE', #29, #132, #272, .T. ) ;
#40 = DIRECTION ( 'NONE',  ( 0.000000000000000000, 1.000000000000000000, 0.000000000000000000 ) ) ;
#41 = ORIENTED_EDGE ( 'NONE', *, *, #75, .T. ) ;
#42 = CARTESIAN_POINT ( 'NONE',  ( 0.000000000000000000, 0.000000000000000000, -130.0000000000000284 ) ) ;
#43 = CARTESIAN_POINT ( 'NONE',  ( 70.00000000000000000, 180.0000000000000000, 0.000000000000000000 ) ) ;
#44 = CARTESIAN_POINT ( 'NONE',  ( 0.000000000000000000, 180.0000000000000000, 0.000000000000000000 ) ) ;
#45 = SURFACE_SIDE_STYLE ('',( #192 ) ) ;
#46 = ORIENTED_EDGE ( 'NONE', *, *, #34, .T. ) ;
#47 = LINE ( 'NONE', #16, #125 ) ;
#48 = FACE_OUTER_BOUND ( 'NONE', #155, .T. ) ;
#49 = DIRECTION ( 'NONE',  ( 0.000000000000000000, 0.000000000000000000, 1.000000000000000000 ) ) ;
#50 = CARTESIAN_POINT ( 'NONE',  ( 70.00000000000000000, 180.0000000000000000, 0.000000000000000000 ) ) ;
#51 = PRODUCT_DEFINITION_CONTEXT ( 'detailed design', #255, 'design' ) ;
#52 = DIRECTION ( 'NONE',  ( 0.000000000000000000, -0.000000000000000000, 1.000000000000000000 ) ) ;
#53 = VECTOR ( 'NONE', #266, 1000.000000000000000 ) ;
#54 = ADVANCED_FACE ( 'NONE', ( #48 ), #274, .F. ) ;
#55 = DIRECTION ( 'NONE',  ( 1.000000000000000000, 0.000000000000000000, 0.000000000000000000 ) ) ;
#56 = PRODUCT ( 'upsetting_quarter assembly', 'upsetting_quarter assembly', '', ( #313 ) ) ;
#57 = CONTEXT_DEPENDENT_SHAPE_REPRESENTATION ( #99, #224 ) ;
#58 =( LENGTH_UNIT ( ) NAMED_UNIT ( * ) SI_UNIT ( .MILLI., .METRE. ) );
#59 = ORIENTED_EDGE ( 'NONE', *, *, #196, .T. ) ;
#60 = VECTOR ( 'NONE', #237, 1000.000000000000000 ) ;
#61 = LINE ( 'NONE', #35, #156 ) ;
#62 = CONTEXT_DEPENDENT_SHAPE_REPRESENTATION ( #159, #101 ) ;
#63 = DIRECTION ( 'NONE',  ( 0.000000000000000000, 1.000000000000000000, 0.000000000000000000 ) ) ;
#64 = FACE_OUTER_BOUND ( 'NONE', #203, .T. ) ;
#65 = SHAPE_DEFINITION_REPRESENTATION ( #82, #328 ) ;
#66 = AXIS2_PLACEMENT_3D ( 'NONE', #7, #204, #126 ) ;
#67 = DIRECTION ( 'NONE',  ( 0.000000000000000000, 0.000000000000000000, 1.000000000000000000 ) ) ;
#68 = LINE ( 'NONE', #92, #114 ) ;
#69 = ORIENTED_EDGE ( 'NONE', *, *, #39, .F. ) ;
#70 = PRESENTATION_STYLE_ASSIGNMENT (( #239 ) ) ;
#71 = EDGE_LOOP ( 'NONE', ( #106, #347, #299, #138 ) ) ;
#72 = DIRECTION ( 'NONE',  ( -0.000000000000000000, -1.000000000000000000, -0.000000000000000000 ) ) ;
#73 = VECTOR ( 'NONE', #291, 1000.000000000000000 ) ;
#74 = PRODUCT_DEFINITION_FORMATION_WITH_SPECIFIED_SOURCE ( 'ANY', '', #246, .NOT_KNOWN. ) ;
#75 = EDGE_CURVE ( 'NONE', #195, #152, #179, .T. ) ;
#76 = FACE_OUTER_BOUND ( 'NONE', #355, .T. ) ;
#77 = ORIENTED_EDGE ( 'NONE', *, *, #286, .F. ) ;
#78 = DIRECTION ( 'NONE',  ( 1.000000000000000000, -0.000000000000000000, 0.000000000000000000 ) ) ;
#79 = EDGE_CURVE ( 'NONE', #29, #256, #345, .T. ) ;
#80 = SURFACE_STYLE_USAGE ( .BOTH. , #45 ) ;
#81 = ORIENTED_EDGE ( 'NONE', *, *, #75, .F. ) ;
#82 = PRODUCT_DEFINITION_SHAPE ( 'NONE', 'NONE',  #154 ) ;
#83 = DIRECTION ( 'NONE',  ( 1.000000000000000000, 0.000000000000000000, 0.000000000000000000 ) ) ;
#84 =( REPRESENTATION_RELATIONSHIP ('NONE','NONE', #166, #328 ) REPRESENTATION_RELATIONSHIP_WITH_TRANSFORMATION ( #310 )SHAPE_REPRESENTATION_RELATIONSHIP( ) );
#85 = EDGE_LOOP ( 'NONE', ( #243, #277, #167 ) ) ;
#86 = DIRECTION ( 'NONE',  ( 1.000000000000000000, 0.000000000000000000, 0.000000000000000000 ) ) ;
#87 = SHAPE_REPRESENTATION_RELATIONSHIP ( 'NONE' , 'NONE' ,  #328, #127 ) ;
#88 = APPLICATION_PROTOCOL_DEFINITION ( 'draft international standard', 'automotive_design', 1998, #17 ) ;
#89 = CARTESIAN_POINT ( 'NONE',  ( 0.000000000000000000, 70.00000000000000000, 0.000000000000000000 ) ) ;
#90 = PRODUCT_RELATED_PRODUCT_CATEGORY ( 'part', '', ( #246 ) ) ;
#91 = CARTESIAN_POINT ( 'NONE',  ( 0.000000000000000000, 70.00000000000000000, -130.0000000000000284 ) ) ;
#92 = CARTESIAN_POINT ( 'NONE',  ( 0.000000000000000000, 70.00000000000000000, 0.000000000000000000 ) ) ;
#93 = DIRECTION ( 'NONE',  ( 0.000000000000000000, 1.000000000000000000, 0.000000000000000000 ) ) ;
#94 = PLANE ( 'NONE',  #194 ) ;
#95 = ORIENTED_EDGE ( 'NONE', *, *, #131, .T. ) ;
#96 = LINE ( 'NONE', #91, #212 ) ;
#97 = PRODUCT ( 'billrt_mohammad_quart', 'billrt_mohammad_quart', '', ( #144 ) ) ;
#98 = PRESENTATION_STYLE_ASSIGNMENT (( #80 ) ) ;
#99 =( REPRESENTATION_RELATIONSHIP ('NONE','NONE', #166, #328 ) REPRESENTATION_RELATIONSHIP_WITH_TRANSFORMATION ( #228 )SHAPE_REPRESENTATION_RELATIONSHIP( ) );
#100 =( LENGTH_UNIT ( ) NAMED_UNIT ( * ) SI_UNIT ( .MILLI., .METRE. ) );
#101 = PRODUCT_DEFINITION_SHAPE ( 'NONE', 'NONE',  #365 ) ;
#102 = CARTESIAN_POINT ( 'NONE',  ( 0.000000000000000000, 0.000000000000000000, 0.000000000000000000 ) ) ;
#103 = CIRCLE ( 'NONE', #164, 130.0000000000000284 ) ;
#104 = CARTESIAN_POINT ( 'NONE',  ( 0.000000000000000000, 70.00000000000000000, 0.000000000000000000 ) ) ;
#105 = EDGE_CURVE ( 'NONE', #256, #227, #207, .T. ) ;
#106 = ORIENTED_EDGE ( 'NONE', *, *, #131, .F. ) ;
#107 = DIRECTION ( 'NONE',  ( 0.000000000000000000, 0.000000000000000000, -1.000000000000000000 ) ) ;
#108 = DIRECTION ( 'NONE',  ( 0.000000000000000000, 0.000000000000000000, 1.000000000000000000 ) ) ;
#109 = AXIS2_PLACEMENT_3D ( 'NONE', #206, #258, #346 ) ;
#110 = ORIENTED_EDGE ( 'NONE', *, *, #251, .T. ) ;
#111 =( GEOMETRIC_REPRESENTATION_CONTEXT ( 3 ) GLOBAL_UNCERTAINTY_ASSIGNED_CONTEXT ( ( #248 ) ) GLOBAL_UNIT_ASSIGNED_CONTEXT ( ( #58, #28, #305 ) ) REPRESENTATION_CONTEXT ( 'NONE', 'WORKASPACE' ) );
#112 = PRODUCT_DEFINITION_CONTEXT ( 'detailed design', #292, 'design' ) ;
#113 = CARTESIAN_POINT ( 'NONE',  ( 0.000000000000000000, 0.000000000000000000, 0.000000000000000000 ) ) ;
#114 = VECTOR ( 'NONE', #123, 1000.000000000000000 ) ;
#115 = ORIENTED_EDGE ( 'NONE', *, *, #171, .T. ) ;
#116 = PRODUCT_DEFINITION ( 'UNKNOWN', '', #174, #24 ) ;
#117 = ORIENTED_EDGE ( 'NONE', *, *, #286, .T. ) ;
#118 = CARTESIAN_POINT ( 'NONE',  ( 0.000000000000000000, 0.000000000000000000, 0.000000000000000000 ) ) ;
#119 = PRESENTATION_LAYER_ASSIGNMENT (  '', '', ( #146 ) ) ;
#120 = ADVANCED_FACE ( 'NONE', ( #12 ), #182, .F. ) ;
#121 = CARTESIAN_POINT ( 'NONE',  ( 0.000000000000000000, 0.000000000000000000, 0.000000000000000000 ) ) ;
#122 = APPLICATION_PROTOCOL_DEFINITION ( 'draft international standard', 'automotive_design', 1998, #292 ) ;
#123 = DIRECTION ( 'NONE',  ( 0.000000000000000000, 0.000000000000000000, -1.000000000000000000 ) ) ;
#124 = CARTESIAN_POINT ( 'NONE',  ( 0.000000000000000000, 0.000000000000000000, 0.000000000000000000 ) ) ;
#125 = VECTOR ( 'NONE', #188, 1000.000000000000000 ) ;
#126 = DIRECTION ( 'NONE',  ( 0.000000000000000000, -0.000000000000000000, 1.000000000000000000 ) ) ;
#127 = ADVANCED_BREP_SHAPE_REPRESENTATION ( '', ( #275, #27 ), #111 ) ;
#128 = ORIENTED_EDGE ( 'NONE', *, *, #282, .F. ) ;
#129 = CARTESIAN_POINT ( 'NONE',  ( 0.000000000000000000, 70.00000000000000000, 0.000000000000000000 ) ) ;
#130 = CIRCLE ( 'NONE', #178, 130.0000000000000284 ) ;
#131 = EDGE_CURVE ( 'NONE', #195, #222, #230, .T. ) ;
#132 = VERTEX_POINT ( 'NONE', #42 ) ;
#133 = CARTESIAN_POINT ( 'NONE',  ( 0.000000000000000000, 180.0000000000000000, -70.00000000000001421 ) ) ;
#134 = VERTEX_POINT ( 'NONE', #151 ) ;
#135 = ORIENTED_EDGE ( 'NONE', *, *, #161, .F. ) ;
#136 = EDGE_CURVE ( 'NONE', #320, #227, #153, .T. ) ;
#137 =( NAMED_UNIT ( * ) SI_UNIT ( $, .STERADIAN. ) SOLID_ANGLE_UNIT ( ) );
#138 = ORIENTED_EDGE ( 'NONE', *, *, #196, .F. ) ;
#139 = ADVANCED_FACE ( 'NONE', ( #348 ), #315, .T. ) ;
#140 = COLOUR_RGB ( '',0.7921568627450980005, 0.8196078431372548767, 0.9333333333333333481 ) ;
#141 = FACE_OUTER_BOUND ( 'NONE', #85, .T. ) ;
#142 = SHAPE_DEFINITION_REPRESENTATION ( #288, #340 ) ;
#143 = CARTESIAN_POINT ( 'NONE',  ( 130.0000000000000284, 70.00000000000000000, 0.000000000000000000 ) ) ;
#144 = PRODUCT_CONTEXT ( 'NONE', #148, 'mechanical' ) ;
#145 = CARTESIAN_POINT ( 'NONE',  ( 0.000000000000000000, 70.00000000000000000, 0.000000000000000000 ) ) ;
#146 = STYLED_ITEM ( 'NONE', ( #70 ), #270 ) ;
#147 = DIRECTION ( 'NONE',  ( 0.000000000000000000, 1.000000000000000000, -0.000000000000000000 ) ) ;
#148 = APPLICATION_CONTEXT ( 'automotive_design' ) ;
#149 = VERTEX_POINT ( 'NONE', #287 ) ;
#150 = CONTEXT_DEPENDENT_SHAPE_REPRESENTATION ( #84, #259 ) ;
#151 = CARTESIAN_POINT ( 'NONE',  ( 0.000000000000000000, 70.00000000000000000, -130.0000000000000284 ) ) ;
#152 = VERTEX_POINT ( 'NONE', #314 ) ;
#153 = LINE ( 'NONE', #208, #60 ) ;
#154 = PRODUCT_DEFINITION ( 'UNKNOWN', '', #74, #112 ) ;
#155 = EDGE_LOOP ( 'NONE', ( #69, #110, #115, #135 ) ) ;
#156 = VECTOR ( 'NONE', #341, 1000.000000000000000 ) ;
#157 = ORIENTED_EDGE ( 'NONE', *, *, #136, .F. ) ;
#158 = CARTESIAN_POINT ( 'NONE',  ( 0.000000000000000000, 180.0000000000000000, 0.000000000000000000 ) ) ;
#159 =( REPRESENTATION_RELATIONSHIP ('NONE','NONE', #166, #340 ) REPRESENTATION_RELATIONSHIP_WITH_TRANSFORMATION ( #233 )SHAPE_REPRESENTATION_RELATIONSHIP( ) );
#160 = DIRECTION ( 'NONE',  ( 0.000000000000000000, 0.000000000000000000, 1.000000000000000000 ) ) ;
#161 = EDGE_CURVE ( 'NONE', #132, #134, #96, .T. ) ;
#162 = CARTESIAN_POINT ( 'NONE',  ( 0.000000000000000000, 0.000000000000000000, 0.000000000000000000 ) ) ;
#163 =( NAMED_UNIT ( * ) PLANE_ANGLE_UNIT ( ) SI_UNIT ( $, .RADIAN. ) );
#164 = AXIS2_PLACEMENT_3D ( 'NONE', #145, #63, #67 ) ;
#165 = DIRECTION ( 'NONE',  ( 0.000000000000000000, 1.000000000000000000, 0.000000000000000000 ) ) ;
#166 = SHAPE_REPRESENTATION ( 'upsetting_quarter assembly', ( #242, #213, #283, #232 ), #304 ) ;
#167 = ORIENTED_EDGE ( 'NONE', *, *, #199, .T. ) ;
#168 = UNCERTAINTY_MEASURE_WITH_UNIT (LENGTH_MEASURE( 1.000000000000000082E-05 ), #298, 'distance_accuracy_value', 'NONE');
#169 = CARTESIAN_POINT ( 'NONE',  ( 2.162617008536681974E-16, 368.1372443462082060, 8.817863961298485707E-15 ) ) ;
#170 = ADVANCED_BREP_SHAPE_REPRESENTATION ( '', ( #270, #27 ), #250 ) ;
#171 = EDGE_CURVE ( 'NONE', #320, #134, #68, .T. ) ;
#172 = DIRECTION ( 'NONE',  ( 1.000000000000000000, 0.000000000000000000, 0.000000000000000000 ) ) ;
#173 = CIRCLE ( 'NONE', #231, 70.00000000000001421 ) ;
#174 = PRODUCT_DEFINITION_FORMATION_WITH_SPECIFIED_SOURCE ( 'ANY', '', #97, .NOT_KNOWN. ) ;
#175 = DIRECTION ( 'NONE',  ( 0.000000000000000000, 1.000000000000000000, 0.000000000000000000 ) ) ;
#176 = ADVANCED_FACE ( 'NONE', ( #236 ), #285, .T. ) ;
#177 = ORIENTED_EDGE ( 'NONE', *, *, #39, .T. ) ;
#178 = AXIS2_PLACEMENT_3D ( 'NONE', #297, #295, #160 ) ;
#179 = LINE ( 'NONE', #121, #238 ) ;
#180 = CARTESIAN_POINT ( 'NONE',  ( 130.0000000000000284, 70.00000000000000000, 0.000000000000000000 ) ) ;
#181 = LINE ( 'NONE', #210, #205 ) ;
#182 = PLANE ( 'NONE',  #269 ) ;
#183 = ORIENTED_EDGE ( 'NONE', *, *, #15, .F. ) ;
#184 = PRODUCT_RELATED_PRODUCT_CATEGORY ( 'part', '', ( #56 ) ) ;
#185 = CARTESIAN_POINT ( 'NONE',  ( 0.000000000000000000, 0.000000000000000000, 0.000000000000000000 ) ) ;
#186 = PRESENTATION_LAYER_ASSIGNMENT (  '', '', ( #318 ) ) ;
#187 = DIRECTION ( 'NONE',  ( 0.000000000000000000, 0.000000000000000000, -1.000000000000000000 ) ) ;
#188 = DIRECTION ( 'NONE',  ( 0.000000000000000000, 1.000000000000000000, -0.000000000000000000 ) ) ;
#189 = DIRECTION ( 'NONE',  ( 0.000000000000000000, -0.000000000000000000, 1.000000000000000000 ) ) ;
#190 = DIRECTION ( 'NONE',  ( 0.000000000000000000, 1.000000000000000000, 0.000000000000000000 ) ) ;
#191 = DIRECTION ( 'NONE',  ( 0.000000000000000000, 0.000000000000000000, 1.000000000000000000 ) ) ;
#192 = SURFACE_STYLE_FILL_AREA ( #351 ) ;
#193 = COLOUR_RGB ( '',0.7921568627450980005, 0.8196078431372548767, 0.9333333333333333481 ) ;
#194 = AXIS2_PLACEMENT_3D ( 'NONE', #289, #40, #9 ) ;
#195 = VERTEX_POINT ( 'NONE', #118 ) ;
#196 = EDGE_CURVE ( 'NONE', #222, #264, #61, .T. ) ;
#197 = ORIENTED_EDGE ( 'NONE', *, *, #105, .T. ) ;
#198 = CLOSED_SHELL ( 'NONE', ( #350, #11, #260, #359, #54 ) ) ;
#199 = EDGE_CURVE ( 'NONE', #227, #134, #103, .T. ) ;
#200 = DIRECTION ( 'NONE',  ( 0.000000000000000000, 0.000000000000000000, 1.000000000000000000 ) ) ;
#201 = PRODUCT_CONTEXT ( 'NONE', #235, 'mechanical' ) ;
#202 =( LENGTH_UNIT ( ) NAMED_UNIT ( * ) SI_UNIT ( .MILLI., .METRE. ) );
#203 = EDGE_LOOP ( 'NONE', ( #309, #216, #46 ) ) ;
#204 = DIRECTION ( 'NONE',  ( 0.000000000000000000, 1.000000000000000000, 0.000000000000000000 ) ) ;
#205 = VECTOR ( 'NONE', #147, 1000.000000000000000 ) ;
#206 = CARTESIAN_POINT ( 'NONE',  ( 0.000000000000000000, 180.0000000000000000, 0.000000000000000000 ) ) ;
#207 = LINE ( 'NONE', #180, #30 ) ;
#208 = CARTESIAN_POINT ( 'NONE',  ( 0.000000000000000000, 70.00000000000000000, 0.000000000000000000 ) ) ;
#209 = ADVANCED_FACE ( 'NONE', ( #64 ), #263, .T. ) ;
#210 = CARTESIAN_POINT ( 'NONE',  ( 0.000000000000000000, 0.000000000000000000, 0.000000000000000000 ) ) ;
#211 = FILL_AREA_STYLE ('',( #273 ) ) ;
#212 = VECTOR ( 'NONE', #284, 1000.000000000000000 ) ;
#213 = AXIS2_PLACEMENT_3D ( 'NONE', #301, #108, #280 ) ;
#214 = DIRECTION ( 'NONE',  ( 1.000000000000000000, 0.000000000000000000, 0.000000000000000000 ) ) ;
#215 = PLANE ( 'NONE',  #323 ) ;
#216 = ORIENTED_EDGE ( 'NONE', *, *, #15, .T. ) ;
#217 =( NAMED_UNIT ( * ) SI_UNIT ( $, .STERADIAN. ) SOLID_ANGLE_UNIT ( ) );
#218 = ORIENTED_EDGE ( 'NONE', *, *, #105, .F. ) ;
#219 = DIRECTION ( 'NONE',  ( 0.000000000000000000, 0.000000000000000000, 1.000000000000000000 ) ) ;
#220 = AXIS2_PLACEMENT_3D ( 'NONE', #104, #72, #187 ) ;
#221 = UNCERTAINTY_MEASURE_WITH_UNIT (LENGTH_MEASURE( 1.000000000000000082E-05 ), #202, 'distance_accuracy_value', 'NONE');
#222 = VERTEX_POINT ( 'NONE', #5 ) ;
#223 = SHAPE_REPRESENTATION_RELATIONSHIP ( 'NONE' , 'NONE' ,  #340, #170 ) ;
#224 = PRODUCT_DEFINITION_SHAPE ( 'NONE', 'NONE',  #364 ) ;
#225 = AXIS2_PLACEMENT_3D ( 'NONE', #185, #317, #319 ) ;
#226 =( LENGTH_UNIT ( ) NAMED_UNIT ( * ) SI_UNIT ( .MILLI., .METRE. ) );
#227 = VERTEX_POINT ( 'NONE', #143 ) ;
#228 = ITEM_DEFINED_TRANSFORMATION ( 'NONE', 'NONE', #283,  #27 ) ;
#229 = DIRECTION ( 'NONE',  ( 0.000000000000000000, 1.000000000000000000, 0.000000000000000000 ) ) ;
#230 = LINE ( 'NONE', #124, #358 ) ;
#231 = AXIS2_PLACEMENT_3D ( 'NONE', #268, #165, #191 ) ;
#232 = AXIS2_PLACEMENT_3D ( 'NONE', #276, #360, #83 ) ;
#233 = ITEM_DEFINED_TRANSFORMATION ( 'NONE', 'NONE', #232,  #27 ) ;
#234 = DIRECTION ( 'NONE',  ( 0.000000000000000000, 0.000000000000000000, -1.000000000000000000 ) ) ;
#235 = APPLICATION_CONTEXT ( 'automotive_design' ) ;
#236 = FACE_OUTER_BOUND ( 'NONE', #262, .T. ) ;
#237 = DIRECTION ( 'NONE',  ( 1.000000000000000000, -0.000000000000000000, 0.000000000000000000 ) ) ;
#238 = VECTOR ( 'NONE', #343, 1000.000000000000000 ) ;
#239 = SURFACE_STYLE_USAGE ( .BOTH. , #296 ) ;
#240 = CYLINDRICAL_SURFACE ( 'NONE', #220, 130.0000000000000284 ) ;
#241 = CLOSED_SHELL ( 'NONE', ( #176, #209, #361, #139, #120 ) ) ;
#242 = AXIS2_PLACEMENT_3D ( 'NONE', #252, #32, #6 ) ;
#243 = ORIENTED_EDGE ( 'NONE', *, *, #171, .F. ) ;
#244 = FILL_AREA_STYLE_COLOUR ( '', #193 ) ;
#245 = CARTESIAN_POINT ( 'NONE',  ( 0.000000000000000000, 0.000000000000000000, 0.000000000000000000 ) ) ;
#246 = PRODUCT ( 'Upsetting mold_mohammmadd', 'Upsetting mold_mohammmadd', '', ( #201 ) ) ;
#247 = ORIENTED_EDGE ( 'NONE', *, *, #34, .F. ) ;
#248 = UNCERTAINTY_MEASURE_WITH_UNIT (LENGTH_MEASURE( 1.000000000000000082E-05 ), #58, 'distance_accuracy_value', 'NONE');
#249 = VECTOR ( 'NONE', #107, 1000.000000000000000 ) ;
#250 =( GEOMETRIC_REPRESENTATION_CONTEXT ( 3 ) GLOBAL_UNCERTAINTY_ASSIGNED_CONTEXT ( ( #221 ) ) GLOBAL_UNIT_ASSIGNED_CONTEXT ( ( #202, #303, #137 ) ) REPRESENTATION_CONTEXT ( 'NONE', 'WORKASPACE' ) );
#251 = EDGE_CURVE ( 'NONE', #29, #320, #181, .T. ) ;
#252 = CARTESIAN_POINT ( 'NONE',  ( 0.000000000000000000, 0.000000000000000000, 0.000000000000000000 ) ) ;
#253 = ORIENTED_EDGE ( 'NONE', *, *, #79, .T. ) ;
#254 = PRODUCT_DEFINITION_SHAPE ( 'NONE', 'NONE',  #308 ) ;
#255 = APPLICATION_CONTEXT ( 'automotive_design' ) ;
#256 = VERTEX_POINT ( 'NONE', #261 ) ;
#257 = DIRECTION ( 'NONE',  ( 0.000000000000000000, 0.000000000000000000, -1.000000000000000000 ) ) ;
#258 = DIRECTION ( 'NONE',  ( -0.000000000000000000, -1.000000000000000000, -0.000000000000000000 ) ) ;
#259 = PRODUCT_DEFINITION_SHAPE ( 'NONE', 'NONE',  #363 ) ;
#260 = ADVANCED_FACE ( 'NONE', ( #265 ), #94, .F. ) ;
#261 = CARTESIAN_POINT ( 'NONE',  ( 130.0000000000000284, 0.000000000000000000, 0.000000000000000000 ) ) ;
#262 = EDGE_LOOP ( 'NONE', ( #281, #59, #247, #77 ) ) ;
#263 = PLANE ( 'NONE',  #66 ) ;
#264 = VERTEX_POINT ( 'NONE', #133 ) ;
#265 = FACE_OUTER_BOUND ( 'NONE', #356, .T. ) ;
#266 = DIRECTION ( 'NONE',  ( 0.000000000000000000, 0.000000000000000000, -1.000000000000000000 ) ) ;
#267 = FACE_OUTER_BOUND ( 'NONE', #332, .T. ) ;
#268 = CARTESIAN_POINT ( 'NONE',  ( 0.000000000000000000, 180.0000000000000000, 0.000000000000000000 ) ) ;
#269 = AXIS2_PLACEMENT_3D ( 'NONE', #1, #33, #312 ) ;
#270 = MANIFOLD_SOLID_BREP ( 'Cut-Extrude2', #241 ) ;
#271 =( NAMED_UNIT ( * ) SI_UNIT ( $, .STERADIAN. ) SOLID_ANGLE_UNIT ( ) );
#272 = LINE ( 'NONE', #245, #249 ) ;
#273 = FILL_AREA_STYLE_COLOUR ( '', #140 ) ;
#274 = PLANE ( 'NONE',  #311 ) ;
#275 = MANIFOLD_SOLID_BREP ( 'Cut-Extrude2', #198 ) ;
#276 = CARTESIAN_POINT ( 'NONE',  ( -2.458594973897595183E-18, 121.3840999087900627, 0.000000000000000000 ) ) ;
#277 = ORIENTED_EDGE ( 'NONE', *, *, #136, .T. ) ;
#278 = EDGE_CURVE ( 'NONE', #152, #222, #36, .T. ) ;
#279 = AXIS2_PLACEMENT_3D ( 'NONE', #89, #229, #189 ) ;
#280 = DIRECTION ( 'NONE',  ( 1.000000000000000000, 0.000000000000000000, 0.000000000000000000 ) ) ;
#281 = ORIENTED_EDGE ( 'NONE', *, *, #278, .T. ) ;
#282 = EDGE_CURVE ( 'NONE', #195, #149, #47, .T. ) ;
#283 = AXIS2_PLACEMENT_3D ( 'NONE', #169, #219, #55 ) ;
#284 = DIRECTION ( 'NONE',  ( 0.000000000000000000, 1.000000000000000000, 0.000000000000000000 ) ) ;
#285 = CYLINDRICAL_SURFACE ( 'NONE', #109, 70.00000000000001421 ) ;
#286 = EDGE_CURVE ( 'NONE', #152, #31, #293, .T. ) ;
#287 = CARTESIAN_POINT ( 'NONE',  ( 0.000000000000000000, 180.0000000000000000, 0.000000000000000000 ) ) ;
#288 = PRODUCT_DEFINITION_SHAPE ( 'NONE', 'NONE',  #116 ) ;
#289 = CARTESIAN_POINT ( 'NONE',  ( 0.000000000000000000, 0.000000000000000000, 0.000000000000000000 ) ) ;
#290 = ORIENTED_EDGE ( 'NONE', *, *, #79, .F. ) ;
#291 = DIRECTION ( 'NONE',  ( 1.000000000000000000, -0.000000000000000000, 0.000000000000000000 ) ) ;
#292 = APPLICATION_CONTEXT ( 'automotive_design' ) ;
#293 = LINE ( 'NONE', #43, #294 ) ;
#294 = VECTOR ( 'NONE', #190, 1000.000000000000000 ) ;
#295 = DIRECTION ( 'NONE',  ( 0.000000000000000000, 1.000000000000000000, 0.000000000000000000 ) ) ;
#296 = SURFACE_SIDE_STYLE ('',( #20 ) ) ;
#297 = CARTESIAN_POINT ( 'NONE',  ( 0.000000000000000000, 0.000000000000000000, 0.000000000000000000 ) ) ;
#298 =( LENGTH_UNIT ( ) NAMED_UNIT ( * ) SI_UNIT ( .MILLI., .METRE. ) );
#299 = ORIENTED_EDGE ( 'NONE', *, *, #325, .T. ) ;
#300 = EDGE_LOOP ( 'NONE', ( #128, #41, #117, #183 ) ) ;
#301 = CARTESIAN_POINT ( 'NONE',  ( 0.000000000000000000, 0.000000000000000000, 0.000000000000000000 ) ) ;
#302 = PLANE ( 'NONE',  #279 ) ;
#303 =( NAMED_UNIT ( * ) PLANE_ANGLE_UNIT ( ) SI_UNIT ( $, .RADIAN. ) );
#304 =( GEOMETRIC_REPRESENTATION_CONTEXT ( 3 ) GLOBAL_UNCERTAINTY_ASSIGNED_CONTEXT ( ( #306 ) ) GLOBAL_UNIT_ASSIGNED_CONTEXT ( ( #226, #25, #2 ) ) REPRESENTATION_CONTEXT ( 'NONE', 'WORKASPACE' ) );
#305 =( NAMED_UNIT ( * ) SI_UNIT ( $, .STERADIAN. ) SOLID_ANGLE_UNIT ( ) );
#306 = UNCERTAINTY_MEASURE_WITH_UNIT (LENGTH_MEASURE( 1.000000000000000082E-05 ), #226, 'distance_accuracy_value', 'NONE');
#307 = SHAPE_DEFINITION_REPRESENTATION ( #254, #166 ) ;
#308 = PRODUCT_DEFINITION ( 'UNKNOWN', '', #37, #51 ) ;
#309 = ORIENTED_EDGE ( 'NONE', *, *, #325, .F. ) ;
#310 = ITEM_DEFINED_TRANSFORMATION ( 'NONE', 'NONE', #213,  #27 ) ;
#311 = AXIS2_PLACEMENT_3D ( 'NONE', #23, #172, #257 ) ;
#312 = DIRECTION ( 'NONE',  ( 0.000000000000000000, 0.000000000000000000, -1.000000000000000000 ) ) ;
#313 = PRODUCT_CONTEXT ( 'NONE', #10, 'mechanical' ) ;
#314 = CARTESIAN_POINT ( 'NONE',  ( 70.00000000000001421, 0.000000000000000000, 0.000000000000000000 ) ) ;
#315 = PLANE ( 'NONE',  #225 ) ;
#316 = APPLICATION_PROTOCOL_DEFINITION ( 'draft international standard', 'automotive_design', 1998, #235 ) ;
#317 = DIRECTION ( 'NONE',  ( -0.000000000000000000, 0.000000000000000000, 1.000000000000000000 ) ) ;
#318 = STYLED_ITEM ( 'NONE', ( #98 ), #275 ) ;
#319 = DIRECTION ( 'NONE',  ( 1.000000000000000000, 0.000000000000000000, 0.000000000000000000 ) ) ;
#320 = VERTEX_POINT ( 'NONE', #129 ) ;
#321 = DIRECTION ( 'NONE',  ( 0.000000000000000000, 1.000000000000000000, 0.000000000000000000 ) ) ;
#322 =( NAMED_UNIT ( * ) PLANE_ANGLE_UNIT ( ) SI_UNIT ( $, .RADIAN. ) );
#323 = AXIS2_PLACEMENT_3D ( 'NONE', #102, #324, #214 ) ;
#324 = DIRECTION ( 'NONE',  ( -0.000000000000000000, 0.000000000000000000, 1.000000000000000000 ) ) ;
#325 = EDGE_CURVE ( 'NONE', #149, #264, #354, .T. ) ;
#326 = ORIENTED_EDGE ( 'NONE', *, *, #161, .T. ) ;
#327 = PLANE ( 'NONE',  #336 ) ;
#328 = SHAPE_REPRESENTATION ( 'Upsetting mold_mohammmadd', ( #27 ), #111 ) ;
#329 = ORIENTED_EDGE ( 'NONE', *, *, #352, .T. ) ;
#330 = CARTESIAN_POINT ( 'NONE',  ( 0.000000000000000000, 0.000000000000000000, 0.000000000000000000 ) ) ;
#331 = ORIENTED_EDGE ( 'NONE', *, *, #251, .F. ) ;
#332 = EDGE_LOOP ( 'NONE', ( #331, #253, #197, #157 ) ) ;
#333 = UNCERTAINTY_MEASURE_WITH_UNIT (LENGTH_MEASURE( 1.000000000000000082E-05 ), #100, 'distance_accuracy_value', 'NONE');
#334 = CARTESIAN_POINT ( 'NONE',  ( 0.000000000000000000, 0.000000000000000000, 0.000000000000000000 ) ) ;
#335 = CARTESIAN_POINT ( 'NONE',  ( 0.000000000000000000, 0.000000000000000000, 0.000000000000000000 ) ) ;
#336 = AXIS2_PLACEMENT_3D ( 'NONE', #335, #175, #52 ) ;
#337 = DIRECTION ( 'NONE',  ( 1.000000000000000000, 0.000000000000000000, 0.000000000000000000 ) ) ;
#338 = ORIENTED_EDGE ( 'NONE', *, *, #278, .F. ) ;
#339 = APPLICATION_PROTOCOL_DEFINITION ( 'draft international standard', 'automotive_design', 1998, #10 ) ;
#340 = SHAPE_REPRESENTATION ( 'billrt_mohammad_quart', ( #27 ), #250 ) ;
#341 = DIRECTION ( 'NONE',  ( 0.000000000000000000, 1.000000000000000000, 0.000000000000000000 ) ) ;
#342 =( GEOMETRIC_REPRESENTATION_CONTEXT ( 3 ) GLOBAL_UNCERTAINTY_ASSIGNED_CONTEXT ( ( #168 ) ) GLOBAL_UNIT_ASSIGNED_CONTEXT ( ( #298, #322, #271 ) ) REPRESENTATION_CONTEXT ( 'NONE', 'WORKASPACE' ) );
#343 = DIRECTION ( 'NONE',  ( 1.000000000000000000, -0.000000000000000000, 0.000000000000000000 ) ) ;
#344 = APPLICATION_PROTOCOL_DEFINITION ( 'draft international standard', 'automotive_design', 1998, #255 ) ;
#345 = LINE ( 'NONE', #38, #73 ) ;
#346 = DIRECTION ( 'NONE',  ( 0.000000000000000000, 0.000000000000000000, -1.000000000000000000 ) ) ;
#347 = ORIENTED_EDGE ( 'NONE', *, *, #282, .T. ) ;
#348 = FACE_OUTER_BOUND ( 'NONE', #300, .T. ) ;
#349 =( GEOMETRIC_REPRESENTATION_CONTEXT ( 3 ) GLOBAL_UNCERTAINTY_ASSIGNED_CONTEXT ( ( #333 ) ) GLOBAL_UNIT_ASSIGNED_CONTEXT ( ( #100, #163, #217 ) ) REPRESENTATION_CONTEXT ( 'NONE', 'WORKASPACE' ) );
#350 = ADVANCED_FACE ( 'NONE', ( #14 ), #240, .T. ) ;
#351 = FILL_AREA_STYLE ('',( #244 ) ) ;
#352 = EDGE_CURVE ( 'NONE', #256, #132, #130, .T. ) ;
#353 = AXIS2_PLACEMENT_3D ( 'NONE', #330, #321, #18 ) ;
#354 = LINE ( 'NONE', #158, #53 ) ;
#355 = EDGE_LOOP ( 'NONE', ( #81, #95, #338 ) ) ;
#356 = EDGE_LOOP ( 'NONE', ( #290, #177, #21 ) ) ;
#357 = EDGE_LOOP ( 'NONE', ( #329, #326, #362, #218 ) ) ;
#358 = VECTOR ( 'NONE', #234, 1000.000000000000000 ) ;
#359 = ADVANCED_FACE ( 'NONE', ( #267 ), #215, .T. ) ;
#360 = DIRECTION ( 'NONE',  ( 0.000000000000000000, 0.000000000000000000, 1.000000000000000000 ) ) ;
#361 = ADVANCED_FACE ( 'NONE', ( #76 ), #327, .F. ) ;
#362 = ORIENTED_EDGE ( 'NONE', *, *, #199, .F. ) ;
#363 = NEXT_ASSEMBLY_USAGE_OCCURRENCE ( 'NAUO1', ' ', ' ', #308, #154, $ ) ;
#364 = NEXT_ASSEMBLY_USAGE_OCCURRENCE ( 'NAUO2', ' ', ' ', #308, #154, $ ) ;
#365 = NEXT_ASSEMBLY_USAGE_OCCURRENCE ( 'NAUO3', ' ', ' ', #308, #116, $ ) ;
ENDSEC;
END-ISO-10303-21;
